HIERARCHY
ROOT Hips
{
 OFFSET 0.000000 0.000000 0.000000
 CHANNELS 6 Xposition Yposition Zposition Yrotation Xrotation Zrotation
 JOINT Chest
 {
  OFFSET 0.000000 9.585900 0.002600
  CHANNELS 3 Yrotation Xrotation Zrotation
  JOINT Chest2
  {
   OFFSET 0.000000 9.601200 -0.005300
   CHANNELS 3 Yrotation Xrotation Zrotation
   JOINT Chest3
   {
    OFFSET 0.000000 9.561800 0.000000
    CHANNELS 3 Yrotation Xrotation Zrotation
    JOINT Chest4
    {
     OFFSET 0.000000 9.552100 0.000000
     CHANNELS 3 Yrotation Xrotation Zrotation
     JOINT Neck
     {
      OFFSET 0.000000 14.453000 0.000000
      CHANNELS 3 Yrotation Xrotation Zrotation
      JOINT Head
      {
       OFFSET 0.000000 8.936500 -0.011300
       CHANNELS 3 Yrotation Xrotation Zrotation
       End Site
       {
        OFFSET 0.000000 17.073600 -0.006000
       }
      }
     }
     JOINT RightCollar
     {
      OFFSET -2.921100 9.558500 0.000000
      CHANNELS 3 Yrotation Xrotation Zrotation
      JOINT RightShoulder
      {
       OFFSET -13.519700 0.000000 0.000000
       CHANNELS 3 Yrotation Xrotation Zrotation
       JOINT RightElbow
       {
        OFFSET 0.000000 -29.696600 0.000000
        CHANNELS 3 Yrotation Xrotation Zrotation
        JOINT RightWrist
        {
         OFFSET 0.000000 -24.004700 0.000000
         CHANNELS 3 Yrotation Xrotation Zrotation
         End Site
         {
          OFFSET 0.000000 -17.728500 0.000000
         }
        }
       }
      }
     }
     JOINT LeftCollar
     {
      OFFSET 2.921100 9.558500 0.000000
      CHANNELS 3 Yrotation Xrotation Zrotation
      JOINT LeftShoulder
      {
       OFFSET 13.519700 0.000000 0.000000
       CHANNELS 3 Yrotation Xrotation Zrotation
       JOINT LeftElbow
       {
        OFFSET 0.000000 -29.696600 0.000000
        CHANNELS 3 Yrotation Xrotation Zrotation
        JOINT LeftWrist
        {
         OFFSET 0.000000 -24.004700 0.000000
         CHANNELS 3 Yrotation Xrotation Zrotation
         End Site
         {
          OFFSET 0.000000 -17.728500 0.000000
         }
        }
       }
      }
     }
    }
   }
  }
 }
 JOINT RightHip
 {
  OFFSET -7.771700 -0.012900 -0.001300
  CHANNELS 3 Yrotation Xrotation Zrotation
  JOINT RightKnee
  {
   OFFSET 0.000000 -40.869800 0.001200
   CHANNELS 3 Yrotation Xrotation Zrotation
   JOINT RightAnkle
   {
    OFFSET 0.000000 -39.717900 0.002100
    CHANNELS 3 Yrotation Xrotation Zrotation
    JOINT RightToe
    {
     OFFSET 0.000000 -4.965400 11.033500
     CHANNELS 3 Yrotation Xrotation Zrotation
     End Site
     {
      OFFSET 0.000000 -1.423100 5.872300
     }
    }
   }
  }
 }
 JOINT LeftHip
 {
  OFFSET 7.771700 -0.012900 -0.001300
  CHANNELS 3 Yrotation Xrotation Zrotation
  JOINT LeftKnee
  {
   OFFSET 0.000000 -40.869800 0.001200
   CHANNELS 3 Yrotation Xrotation Zrotation
   JOINT LeftAnkle
   {
    OFFSET 0.000000 -39.717900 0.002100
    CHANNELS 3 Yrotation Xrotation Zrotation
    JOINT LeftToe
    {
     OFFSET 0.000000 -4.965400 11.033500
     CHANNELS 3 Yrotation Xrotation Zrotation
     End Site
     {
      OFFSET 0.000000 -1.423100 5.872300
     }
    }
   }
  }
 }
}
MOTION
Frames: 9
Frame Time: 0.008333
0.000000 85.388000 0.000000 0.000000 -5.767877 0.000000 0.000000 11.653817 0.000000 0.000000 -5.885947 0.000000 0.000000 -0.000000 0.000000 0.000000 -0.000000 0.000000 0.000000 12.528835 0.000000 0.000000 0.711642 0.000000 0.000000 -0.000000 0.000000 0.000000 0.000000 -90.000000 0.000000 -2.309062 0.000000 0.000000 2.309062 0.000000 0.000000 -0.000000 0.000000 0.000000 -0.000000 90.000000 0.000000 -2.309062 0.000000 0.000000 2.309062 0.000000 0.000000 8.520406 0.000000 0.000000 1.905762 0.000000 -0.000000 -4.658285 0.000000 0.000000 -0.000000 0.000000 0.000000 8.520406 0.000000 0.000000 1.905762 0.000000 -0.000000 -4.658285 0.000000 0.000000 -0.000000 0.000000
-60.355640 43.773306 18.881459 173.945672 -25.955324 -0.779118 0.468913 18.158563 4.175256 -0.019484 2.082831 0.477787 -0.022941 3.444027 0.790210 0.227083 15.760986 3.663869 -3.566748 6.652687 -7.302537 -2.223000 -18.810873 -7.435731 11.219035 0.165784 -6.823908 -14.058785 -21.352747 -10.158938 -132.501582 -54.221783 152.249681 -11.537607 4.873614 -18.973666 -18.880878 -3.807253 -0.982314 14.308363 -12.328070 4.156604 117.124560 -52.378067 -147.518073 20.394468 2.533267 5.292489 -3.818912 -65.644687 12.600696 -146.763885 64.620091 -144.611452 -9.717104 -29.563470 7.369031 0.041111 0.135815 -0.023514 5.605967 -53.412395 -0.273582 175.931852 60.907490 176.508623 -1.465374 -39.698057 2.925197 -0.000458 0.066051 -0.002745
-60.363745 43.805127 18.879148 173.974358 -26.010601 -0.816855 0.397820 18.138697 4.144792 -0.035867 2.074969 0.471359 -0.035384 3.451883 0.790169 0.237948 15.806034 3.679032 -3.819159 6.595793 -7.196138 -2.538756 -18.876307 -7.253421 11.333493 0.073321 -6.875437 -14.056537 -21.712676 -10.386417 -132.215741 -54.127610 151.656637 -11.733816 4.671387 -19.361683 -18.976255 -3.895600 -1.016371 14.149894 -12.915869 4.208245 116.836615 -52.427052 -147.186581 20.491220 2.306452 5.179858 -3.858260 -65.578864 12.646373 -146.918128 64.584719 -144.745532 -9.802519 -29.873673 7.477936 0.037421 0.264689 -0.065562 5.582636 -53.335951 -0.281407 175.902744 60.938599 176.507242 -1.432912 -39.681937 2.909354 0.000011 0.057784 -0.004271
-60.376183 43.840588 18.880472 173.998893 -26.042744 -0.838055 0.371961 18.160094 4.147624 -0.046866 2.062900 0.464795 -0.064639 3.428026 0.779006 0.201725 15.809564 3.674575 -4.081708 6.535236 -7.086621 -2.867554 -18.945968 -7.065609 11.449799 -0.011260 -6.923474 -14.040221 -22.065515 -10.618625 -132.035049 -54.048129 151.147901 -11.869506 4.490663 -19.673311 -19.061071 -3.983187 -1.061109 13.968131 -13.479557 4.257771 116.590372 -52.456165 -146.882911 20.596650 2.071825 5.080624 -3.885618 -65.541559 12.674248 -147.041169 64.535339 -144.864313 -9.871667 -30.202240 7.597837 0.025500 0.385902 -0.105220 5.575836 -53.279664 -0.308893 175.853799 60.978188 176.477285 -1.420060 -39.658416 2.903018 0.002336 0.050143 -0.006398
-60.387158 43.881966 18.878599 174.024038 -26.097354 -0.870109 0.317562 18.166455 4.131277 -0.066259 2.051063 0.461217 -0.062829 3.440380 0.785078 0.162444 15.809589 3.669675 -4.351990 6.471810 -6.975214 -3.206336 -19.018963 -6.874232 11.567000 -0.082126 -6.966742 -14.017784 -22.413995 -10.854300 -131.972753 -53.995366 150.738679 -11.965713 4.334369 -19.901822 -19.139944 -4.071252 -1.112307 13.770923 -14.015952 4.307289 116.399118 -52.475586 -146.616926 20.707883 1.831257 4.980856 -3.942274 -65.484469 12.722123 -147.151864 64.481214 -144.980338 -9.907049 -30.511751 7.711344 0.001623 0.467763 -0.140326 5.539212 -53.195631 -0.302447 175.812766 61.019635 176.448918 -1.410052 -39.636647 2.897887 0.003417 0.039507 -0.008121
-60.389782 43.927904 18.874146 174.054106 -26.171723 -0.951490 0.270115 18.193688 4.167672 -0.086748 2.036510 0.453899 -0.060285 3.450736 0.789393 0.121136 15.805652 3.662830 -4.626217 6.410648 -6.860993 -3.551179 -19.089575 -6.678715 11.682667 -0.135719 -7.003062 -14.013503 -22.759349 -11.087729 -132.014948 -53.970469 150.429565 -12.037732 4.204896 -20.041129 -19.213156 -4.154143 -1.164257 13.572808 -14.531842 4.353736 116.246352 -52.491996 -146.385827 20.817375 1.590259 4.876289 -4.102733 -65.401286 12.892444 -147.199739 64.421767 -145.037084 -9.940974 -30.818473 7.818578 -0.012511 0.545000 -0.159056 5.420150 -53.091404 -0.189264 175.796337 61.060695 176.439643 -1.406287 -39.617253 2.894737 0.004167 0.025848 -0.008739
-60.400607 43.971388 18.875961 174.068964 -26.192334 -0.976396 0.161797 18.117857 4.106305 -0.021080 2.112927 0.490660 -0.095799 3.417540 0.775168 0.079542 15.797811 3.654318 -4.901766 6.358266 -6.743720 -3.899000 -19.150468 -6.478981 11.795553 -0.175612 -7.029329 -14.049586 -23.099919 -11.315690 -132.116753 -53.962576 150.199778 -12.096538 4.103078 -20.103478 -19.282934 -4.230659 -1.215391 13.382832 -15.032069 4.394718 116.121683 -52.507751 -146.187664 20.910823 1.369701 4.772435 -4.158866 -65.377615 12.959163 -147.207417 64.366017 -145.063718 -9.977743 -31.055958 7.914670 -0.017267 0.567817 -0.160543 5.384268 -53.043481 -0.172313 175.780049 61.103747 176.422109 -1.403794 -39.591807 2.897862 0.006435 0.015718 -0.008453
-60.403458 44.018742 18.870677 174.084561 -26.257254 -1.036757 0.140069 18.157573 4.141166 -0.023033 2.111557 0.491248 -0.131771 3.382805 0.759178 0.039571 15.787337 3.644935 -5.176815 6.317828 -6.624528 -4.247134 -19.197970 -6.276534 11.904417 -0.210102 -7.046519 -14.128564 -23.430191 -11.536552 -132.231639 -53.954681 150.026810 -12.147347 4.028023 -20.113184 -19.352160 -4.303193 -1.265261 13.201651 -15.518429 4.428271 116.039304 -52.523200 -146.032440 20.978707 1.197278 4.673618 -4.281394 -65.306304 13.106129 -147.167421 64.314564 -145.047620 -10.001469 -31.206374 7.990998 -0.026306 0.525820 -0.148130 5.282712 -52.947135 -0.078680 175.769487 61.139383 176.411396 -1.389536 -39.581596 2.887425 0.002451 0.006936 -0.010474
-60.406804 44.064174 18.866871 174.092899 -26.302342 -1.081978 0.081609 18.140148 4.130596 -0.055704 2.077697 0.474922 -0.069455 3.452561 0.791881 0.020170 15.781688 3.640076 -5.494139 6.249658 -6.505967 -4.593503 -19.229855 -6.073943 11.962526 -0.280798 -7.070836 -14.242162 -23.749720 -11.748903 -132.326189 -53.933451 149.893021 -12.197554 3.979230 -20.093464 -19.466951 -4.409240 -1.305077 13.022736 -15.992337 4.454505 116.021243 -52.539408 -145.933752 21.021740 1.087504 4.573223 -4.373021 -65.260939 13.211272 -147.117404 64.273530 -145.028739 -9.985305 -31.271572 8.038865 -0.048360 0.429423 -0.129994 5.207387 -52.871295 -0.001194 175.764415 61.174778 176.402165 -1.386551 -39.572060 2.885063 -0.001334 0.001372 -0.008054
